# xmcd
#
# Track frame offsets:
#	150
#	17897
#	29989
#	48059
#	61877
#	84283
#	101777
#	116911
#	132805
#	150748
#	169575
#
# Disc length: 2486 seconds
#
# Revision: 1
# Processed by: cddbd v1.5.2PL0 Copyright (c) Steve Scherf et al.
# Submitted via: audiograbber 1.83.01
#
DISCID=8c09b40b
DTITLE=Compilation - HMG  Christian Country Vol. 120
DYEAR=2006
DGENRE=Country
TTITLE0=Robert Martin - Brother Joe
TTITLE1=Katie Knapp - My Child
TTITLE2=Jeff Cumming - Memories
TTITLE3=Keith Rich - If That Was Jesus
TTITLE4=Wes Hayes - You Can't Get There From Here
TTITLE5=Dan Story - Every Man Needs a Rock
TTITLE6=Michael L - Following Daddy's Steps
TTITLE7=Starla  Moore - Where Will I Go
TTITLE8=Karen  Kay - Me and My Lord
TTITLE9=Clint Miller - Troublesome Waters
TTITLE10=Sandra Florence - Sacrifice
EXTD=
EXTT0=
EXTT1=
EXTT2=
EXTT3=
EXTT4=
EXTT5=
EXTT6=
EXTT7=
EXTT8=
EXTT9=
EXTT10=
PLAYORDER=
